<?xml version="1.0" encoding="UTF-8" standalone="no"?>
<svg
   width="295.40173"
   height="223.36516"
   overflow="hidden"
   version="1.1"
   id="svg21"
   xmlns="http://www.w3.org/2000/svg"
   xmlns:svg="http://www.w3.org/2000/svg">
  <defs
     id="defs5">
    <clipPath
       id="clip0">
      <rect
         x="0"
         y="0"
         width="1280"
         height="720"
         id="rect2" />
    </clipPath>
  </defs>
  <path
     d="m 160.966,0 h 55.983 V 0 H 266 L 152.931,223.36516 h -14.744 -37.842 v 0 H 88.98 c -4.488,0 -8.338,-2.67337 -9.983,-6.4836 l -0.851,-4.13075 0.851,-4.13176 c 1.233,-2.85767 3.708,-5.0763 6.761,-6.00581 l 2.95,-0.43772 h 40.315 c 5.434,0 9.838,-4.31505 9.838,-9.63876 0,-5.3237 -4.404,-9.63876 -9.838,-9.63876 H 53.06 l -2.951,-0.43671 c -3.054,-0.93052 -5.528,-3.14915 -6.761,-6.00682 l -0.852,-4.13075 0.852,-4.13176 c 1.233,-2.85767 3.707,-5.0763 6.761,-6.00582 l 2.949,-0.43771 h 88.077 c 5.433,0 9.838,-4.31506 9.838,-9.63876 0,-5.3227 -4.405,-9.63876 -9.838,-9.63876 H 10.564 L 7.612,142.0342 C 4.559,141.10368 2.085,138.88505 0.851,136.02738 L 0,131.89663 0.851,127.76487 c 1.234,-2.85767 3.708,-5.0763 6.761,-6.00582 l 2.95,-0.43771 h 156.661 c 5.433,0 9.838,-4.31506 9.838,-9.63876 0,-5.3237 -4.405,-9.63876 -9.838,-9.63876 h -36.371 l -2.951,-0.43771 c -3.053,-0.92952 -5.528,-3.14815 -6.761,-6.00582 l -0.852,-4.13075 0.852,-4.13176 c 1.233,-2.85767 3.708,-5.0763 6.761,-6.00682 l 2.949,-0.43671 h 62.21 c 5.434,0 9.838,-4.31506 9.838,-9.63876 0,-5.3237 -4.404,-9.63876 -9.838,-9.63876 H 94.766 L 91.815,61.17902 C 88.762,60.2495 86.287,58.03087 85.054,55.1732 l -0.852,-4.13076 0.852,-4.13175 c 1.233,-2.85767 3.708,-5.0763 6.761,-6.00682 l 2.95,-0.43671 h 112.428 c 5.433,0 9.838,-4.31506 9.838,-9.63876 0,-5.32371 -4.405,-9.63876 -9.838,-9.63876 h -46.497 l -2.951,-0.43772 c -3.054,-0.93052 -5.528,-3.14814 -6.761,-6.00581 l -0.852,-4.13176 0.852,-4.13175 C 152.628,2.67337 156.479,0 160.966,0 Z"
     fill="#2e75b6"
     fill-rule="evenodd"
     id="path9"
     style="stroke-width:1.00082" />
  <path
     d="M 100,10.51719 C 100,4.7087 104.701,0 110.5,0 h 14 c 5.799,0 10.5,4.7087 10.5,10.51719 v 0 c 0,5.8085 -4.701,10.5172 -10.5,10.5172 h -14 c -5.799,0 -10.5,-4.7087 -10.5,-10.5172 z"
     fill="#9dc3e6"
     fill-rule="evenodd"
     id="path11"
     style="stroke-width:1.00082" />
  <path
     d="m 14,91.64983 c 0,-5.8085 4.701,-10.51719 10.5,-10.51719 h 68 c 5.799,0 10.5,4.70869 10.5,10.51719 v 0 c 0,5.8085 -4.701,10.51719 -10.5,10.51719 h -68 c -5.799,0 -10.5,-4.70869 -10.5,-10.51719 z"
     fill="#9dc3e6"
     fill-rule="evenodd"
     id="path13"
     style="stroke-width:1.00082" />
  <path
     d="m 22,212.84797 c 0,-5.8085 4.701,-10.5172 10.5,-10.5172 h 22 c 5.799,0 10.5,4.7087 10.5,10.5172 v 0 c 0,5.80849 -4.701,10.51719 -10.5,10.51719 h -22 c -5.799,0 -10.5,-4.7087 -10.5,-10.51719 z"
     fill="#9dc3e6"
     fill-rule="evenodd"
     id="path15"
     style="stroke-width:1.00082" />
  <path
     d="m 287.45789,223.3623 h -48.59766 l 3.73828,-59.96826 h -21.9624 L 200.38708,223.3623 H 151.78943 L 233.25281,0 h 62.14892 z m -42.67872,-90.96484 6.23047,-66.66602 -19.9375,66.66602 z"
     style="font-style:oblique;font-size:319px;font-family:Haettenschweiler, Haettenschweiler_MSFontService, sans-serif;fill:#3b3838"
     id="path111" />
</svg>
