<?xml version="1.0" encoding="UTF-8" standalone="no"?>
<svg
   width="295.40173"
   height="223.3623"
   overflow="hidden"
   version="1.1"
   id="svg21"
   xmlns="http://www.w3.org/2000/svg"
   xmlns:svg="http://www.w3.org/2000/svg">
  <defs
     id="defs5">
    <clipPath
       id="clip0">
      <rect
         x="0"
         y="0"
         width="1280"
         height="720"
         id="rect2" />
    </clipPath>
  </defs>
  <path
     d="m 160.966,1e-5 h 55.983 v 0 H 266 L 152.931,223.30574 h -14.744 -37.842 v 0 H 88.98 c -4.488,0 -8.338,-2.67266 -9.983,-6.48187 l -0.851,-4.12966 0.851,-4.13065 c 1.233,-2.85691 3.708,-5.07495 6.761,-6.00422 l 2.95,-0.4376 h 40.315 c 5.434,0 9.838,-4.31391 9.838,-9.6362 0,-5.32228 -4.404,-9.63619 -9.838,-9.63619 H 53.06 l -2.951,-0.4366 c -3.054,-0.93027 -5.528,-3.14831 -6.761,-6.00522 l -0.852,-4.12965 0.852,-4.13066 c 1.233,-2.85691 3.707,-5.07495 6.761,-6.00422 l 2.949,-0.4376 h 88.077 c 5.433,0 9.838,-4.3139 9.838,-9.63619 0,-5.32129 -4.405,-9.63619 -9.838,-9.63619 H 10.564 l -2.952,-0.4366 C 4.559,141.06614 2.085,138.84811 0.851,135.9912 L 0,131.86154 0.851,127.73089 c 1.234,-2.85691 3.708,-5.07495 6.761,-6.00422 l 2.95,-0.4376 h 156.661 c 5.433,0 9.838,-4.31391 9.838,-9.6362 0,-5.32228 -4.405,-9.63619 -9.838,-9.63619 h -36.371 l -2.951,-0.4376 c -3.053,-0.92927 -5.528,-3.14731 -6.761,-6.00422 l -0.852,-4.12965 0.852,-4.13066 c 1.233,-2.85691 3.708,-5.07495 6.761,-6.00522 l 2.949,-0.4366 h 62.21 c 5.434,0 9.838,-4.3139 9.838,-9.63619 0,-5.32229 -4.404,-9.63619 -9.838,-9.63619 H 94.766 l -2.951,-0.4376 c -3.053,-0.92927 -5.528,-3.14731 -6.761,-6.00422 l -0.852,-4.12966 0.852,-4.13065 c 1.233,-2.85691 3.708,-5.07495 6.761,-6.00522 l 2.95,-0.4366 h 112.428 c 5.433,0 9.838,-4.31391 9.838,-9.6362 0,-5.32228 -4.405,-9.63619 -9.838,-9.63619 h -46.497 l -2.951,-0.4376 c -3.054,-0.93027 -5.528,-3.14731 -6.761,-6.00422 l -0.852,-4.13065 0.852,-4.13066 C 152.628,2.67267 156.479,1e-5 160.966,1e-5 Z"
     fill="#2e75b6"
     fill-rule="evenodd"
     id="path9"
     style="stroke-width:1.00069" />
  <path
     d="M 100,10.5144 C 100,4.70745 104.701,1e-5 110.5,1e-5 h 14 c 5.799,0 10.5,4.70744 10.5,10.51439 v 0 c 0,5.80695 -4.701,10.5144 -10.5,10.5144 h -14 c -5.799,0 -10.5,-4.70745 -10.5,-10.5144 z"
     fill="#9dc3e6"
     fill-rule="evenodd"
     id="path11"
     style="stroke-width:1.00069" />
  <path
     d="M 14,91.62545 C 14,85.8185 18.701,81.11106 24.5,81.11106 h 68 c 5.799,0 10.5,4.70744 10.5,10.51439 v 0 c 0,5.80695 -4.701,10.5144 -10.5,10.5144 h -68 c -5.799,0 -10.5,-4.70745 -10.5,-10.5144 z"
     fill="#9dc3e6"
     fill-rule="evenodd"
     id="path13"
     style="stroke-width:1.00069" />
  <path
     d="m 22,212.79135 c 0,-5.80695 4.701,-10.5144 10.5,-10.5144 h 22 c 5.799,0 10.5,4.70745 10.5,10.5144 v 0 c 0,5.80695 -4.701,10.51439 -10.5,10.51439 h -22 c -5.799,0 -10.5,-4.70744 -10.5,-10.51439 z"
     fill="#9dc3e6"
     fill-rule="evenodd"
     id="path15"
     style="stroke-width:1.00069" />
  <path
     d="m 287.45789,223.3623 h -48.59766 l 3.73828,-59.96826 h -21.9624 L 200.38708,223.3623 H 151.78943 L 233.25281,0 h 62.14892 z m -42.67872,-90.96484 6.23047,-66.66602 -19.9375,66.66602 z"
     style="font-style:oblique;font-size:319px;font-family:Haettenschweiler, Haettenschweiler_MSFontService, sans-serif;fill:#f2f2f2"
     id="path111" />
</svg>
