<?xml version="1.0" encoding="UTF-8" standalone="no"?>
<svg
   width="1120.3572"
   height="225.85449"
   overflow="hidden"
   version="1.1"
   id="svg309"
   xmlns="http://www.w3.org/2000/svg"
   xmlns:svg="http://www.w3.org/2000/svg">
  <defs
     id="defs291">
    <clipPath
       id="clip0">
      <rect
         x="0"
         y="0"
         width="1280"
         height="720"
         id="rect288" />
    </clipPath>
  </defs>
  <path
     d="m 315.619,6e-5 h 126.964 v 0 H 480 L 388.809,223.167 h -90.341 v 0 h -38.45 c -6.012,0 -10.885,-4.74828 -10.885,-10.60542 0,-4.3926 2.741,-8.16253 6.648,-9.77252 l 4.032,-0.79304 h 76.503 c 5.459,0 9.884,-4.3109 9.884,-9.63005 0,-5.31914 -4.425,-9.63005 -9.884,-9.63005 H 180.589 l -4.033,-0.79403 c -3.906,-1.60999 -6.648,-5.37893 -6.648,-9.77153 0,-4.3926 2.742,-8.16153 6.648,-9.77152 l 4.033,-0.79404 h 197.932 c 5.459,0 9.884,-4.31091 9.884,-9.63005 0,-5.31914 -4.425,-9.63005 -9.884,-9.63005 H 10.6809 L 6.6481,141.55066 C 2.7413,139.94067 0,136.17174 0,131.77914 c 0,-4.3926 2.7413,-8.16153 6.6481,-9.77152 l 4.0328,-0.79404 H 368.388 c 5.459,0 9.885,-4.31091 9.885,-9.63005 0,-5.31915 -4.426,-9.63005 -9.885,-9.63005 h -49.604 l -4.033,-0.79404 c -3.907,-1.60999 -6.648,-5.37892 -6.648,-9.77152 0,-4.39261 2.741,-8.16154 6.648,-9.77153 l 4.033,-0.79403 h 102.45 c 5.459,0 9.884,-4.31091 9.884,-9.63006 0,-5.31914 -4.425,-9.63005 -9.884,-9.63005 H 193.888 l -4.032,-0.79403 c -3.907,-1.60999 -6.648,-5.37892 -6.648,-9.77153 0,-4.3926 2.741,-8.16153 6.648,-9.77152 l 4.032,-0.79404 h 186.458 c 5.459,0 9.885,-4.3119 9.885,-9.63005 0,-3.98911 -2.49,-7.41133 -6.037,-8.87387 l -3.235,-0.63563 0.033,-0.0807 h -0.441 l -0.205,-0.0399 h -64.931 l -4.033,-0.79404 c -3.907,-1.60999 -6.648,-5.37892 -6.648,-9.77152 0,-5.85713 4.873,-10.60541 10.885,-10.60541 z"
     fill="#2e75b6"
     fill-rule="evenodd"
     id="path295"
     style="stroke-width:0.998139" />
  <path
     d="M 203,10.95915 C 203,4.90674 207.925,6e-5 214,6e-5 h 55 c 6.075,0 11,4.90668 11,10.95909 v 0 c 0,6.05241 -4.925,10.95909 -11,10.95909 h -55 c -6.075,0 -11,-4.90668 -11,-10.95909 z"
     fill="#9dc3e6"
     fill-rule="evenodd"
     id="path297"
     style="stroke-width:0.998139" />
  <path
     d="m 97,91.15977 c 0,-5.77744 4.701,-10.46095 10.5,-10.46095 h 175 c 5.799,0 10.5,4.68351 10.5,10.46095 v 0 c 0,5.77743 -4.701,10.46095 -10.5,10.46095 h -175 c -5.799,0 -10.5,-4.68352 -10.5,-10.46095 z"
     fill="#9dc3e6"
     fill-rule="evenodd"
     id="path299"
     style="stroke-width:0.998139" />
  <path
     d="m 132,212.2079 c 0,-6.0524 4.925,-10.95909 11,-10.95909 h 74 c 6.075,0 11,4.90669 11,10.95909 v 0 c 0,6.05241 -4.925,10.9591 -11,10.9591 h -74 c -6.075,0 -11,-4.90669 -11,-10.9591 z"
     fill="#9dc3e6"
     fill-rule="evenodd"
     id="path301"
     style="stroke-width:0.998139" />
  <path
     d="m 524.01688,223.3623 h -48.59766 l 3.73828,-59.96826 H 457.1951 L 436.94608,223.3623 H 388.34842 L 469.8118,0 h 62.14892 z m -42.67871,-90.96484 6.23046,-66.66602 -19.9375,66.66602 z"
     style="font-style:oblique;font-size:319px;font-family:Haettenschweiler, Haettenschweiler_MSFontService, sans-serif;fill:#f9f9f9"
     id="path452" />
  <path
     d="m 655.16824,122.58447 h -44.23632 l 8.87841,-44.39209 q 1.86914,-8.87842 -5.76318,-8.87842 -7.78809,0 -9.65723,8.87842 l -22.11816,110.74658 q -1.86914,9.18995 5.91894,9.18995 7.63233,0 9.50147,-9.18995 l 8.72266,-43.76904 h 44.23632 l -8.72265,44.08057 q -7.3208,36.604 -58.56641,36.604 -52.64746,0 -45.01514,-38.16162 L 559.99783,79.43848 q 7.63233,-38.16163 60.27979,-38.16163 51.2456,0 43.9248,36.60401 z"
     style="font-style:oblique;font-size:319px;font-family:Haettenschweiler, Haettenschweiler_MSFontService, sans-serif;fill:#f9f9f9"
     id="path454" />
  <path
     d="m 768.71854,122.58447 h -44.23633 l 8.87842,-44.39209 q 1.86914,-8.87842 -5.76319,-8.87842 -7.78808,0 -9.65722,8.87842 l -22.11817,110.74658 q -1.86914,9.18995 5.91895,9.18995 7.63232,0 9.50146,-9.18995 l 8.72266,-43.76904 h 44.23633 l -8.72266,44.08057 q -7.3208,36.604 -58.56641,36.604 -52.64746,0 -45.01513,-38.16162 L 673.54813,79.43848 q 7.63232,-38.16163 60.27978,-38.16163 51.24561,0 43.92481,36.60401 z"
     style="font-style:oblique;font-size:319px;font-family:Haettenschweiler, Haettenschweiler_MSFontService, sans-serif;fill:#f9f9f9"
     id="path456" />
  <path
     d="m 877.59598,146.72754 h -59.65674 l -8.41113,42.21142 q -1.86914,9.18995 5.91894,9.18995 7.63233,0 9.50147,-9.18995 l 7.3208,-36.44824 h 44.23633 l -7.32081,36.75977 q -7.3208,36.604 -59.50097,36.604 -51.71289,0 -44.08057,-38.16162 L 787.25418,79.43848 q 7.63233,-38.16163 59.34522,-38.16163 52.18017,0 44.85937,36.60401 z M 838.81131,119.625 847.06668,78.19238 q 1.86914,-8.87842 -5.76318,-8.87842 -7.78809,0 -9.65723,8.87842 L 823.3909,119.625 Z"
     style="font-style:oblique;font-size:319px;font-family:Haettenschweiler, Haettenschweiler_MSFontService, sans-serif;fill:#f9f9f9"
     id="path458" />
  <path
     d="m 998.6228,117.44433 h -44.3921 l 7.7881,-39.25195 q 1.7134,-8.25537 -5.9189,-8.25537 -7.6323,0 -9.19,7.94385 L 917.7825,223.3623 H 873.39041 L 909.52713,42.52295 h 44.39207 l -1.2461,6.07471 q 10.4361,-7.32081 28.9717,-7.32081 13.2398,0 21.3394,7.16504 8.0996,7.00928 5.7631,18.53565 z"
     style="font-style:oblique;font-size:319px;font-family:Haettenschweiler, Haettenschweiler_MSFontService, sans-serif;fill:#f9f9f9"
     id="path460" />
  <path
     d="m 1090.5222,223.3623 h -39.2519 l 1.4018,-7.00927 q -6.8535,9.50146 -30.3735,9.50146 -36.2925,0 -30.685,-28.34863 l 7.3208,-36.29248 q 2.3364,-12.14942 12.9282,-21.1836 10.7475,-9.03418 40.0307,-22.58545 16.9781,-7.78808 17.9126,-12.46093 l 5.2959,-26.79102 q 1.8692,-8.87842 -5.7631,-8.87842 -8.7227,0 -13.084,21.65088 -0.7788,3.89405 -1.8692,11.52637 -0.9345,7.63232 -1.7134,11.52637 h -42.8344 l 7.3208,-36.13672 q 7.3208,-36.60401 60.2798,-36.60401 49.5322,0 41.8999,38.16163 z m -37.6943,-33.80029 9.3457,-46.57275 q -16.0434,3.73828 -17.9126,13.70703 l -6.6977,32.86572 q -1.5577,8.25537 6.3862,8.25537 7.3208,0 8.8784,-8.25537 z"
     style="font-style:oblique;font-size:319px;font-family:Haettenschweiler, Haettenschweiler_MSFontService, sans-serif;fill:#f9f9f9"
     id="path462" />
</svg>
