<?xml version="1.0" encoding="UTF-8" standalone="no"?>
<svg
   width="1118.3572"
   height="225.85451"
   overflow="hidden"
   version="1.1"
   id="svg59"
   xmlns="http://www.w3.org/2000/svg"
   xmlns:svg="http://www.w3.org/2000/svg">
  <defs
     id="defs39">
    <clipPath
       id="clip0">
      <rect
         x="0"
         y="0"
         width="1280"
         height="720"
         id="rect36" />
    </clipPath>
  </defs>
  <path
     d="m 314.961,2e-5 h 126.7 v 0 H 479 l -91.001,223.39401 h -90.153 v 0 h -38.37 c -5.999,0 -10.862,-4.7531 -10.862,-10.6162 0,-4.39707 2.736,-8.17084 6.634,-9.78246 l 4.024,-0.79385 h 76.344 c 5.447,0 9.863,-4.31529 9.863,-9.63985 0,-5.32456 -4.416,-9.63985 -9.863,-9.63985 H 180.213 l -4.024,-0.79485 c -3.899,-1.61162 -6.635,-5.38439 -6.635,-9.78146 0,-4.39707 2.736,-8.16984 6.635,-9.78147 l 4.024,-0.79484 h 197.519 c 5.448,0 9.864,-4.3153 9.864,-9.63985 0,-5.32456 -4.416,-9.63985 -9.864,-9.63985 H 10.6587 L 6.6342,141.69465 C 2.7356,140.08303 0,136.31026 0,131.91319 c 0,-4.39708 2.7356,-8.16984 6.6342,-9.78147 l 4.0245,-0.79484 H 367.621 c 5.447,0 9.864,-4.3153 9.864,-9.63985 0,-5.32456 -4.417,-9.63985 -9.864,-9.63985 H 318.12 l -4.025,-0.79485 c -3.898,-1.61163 -6.634,-5.38439 -6.634,-9.78146 0,-4.39708 2.736,-8.16984 6.634,-9.78147 l 4.025,-0.79484 h 102.237 c 5.447,0 9.863,-4.3153 9.863,-9.63985 0,-5.32456 -4.416,-9.63986 -9.863,-9.63986 H 193.485 l -4.025,-0.79484 c -3.899,-1.61163 -6.634,-5.38439 -6.634,-9.78147 0,-4.39707 2.735,-8.16983 6.634,-9.78146 l 4.025,-0.79485 h 186.069 c 5.448,0 9.864,-4.31629 9.864,-9.63985 0,-3.99316 -2.484,-7.41887 -6.025,-8.8829 l -3.228,-0.63627 0.033,-0.0808 h -0.44 l -0.204,-0.0399 h -64.796 l -4.025,-0.79484 C 306.835,18.78604 304.099,15.01328 304.099,10.6162 304.099,4.75311 308.962,0 314.961,0 Z"
     fill="#2e75b6"
     fill-rule="evenodd"
     id="path43"
     style="stroke-width:0.998646" />
  <path
     d="M 201,10.97026 C 201,4.9117 205.925,2e-5 212,2e-5 h 55 c 6.075,0 11,4.91168 11,10.97024 v 0 c 0,6.05857 -4.925,10.97024 -11,10.97024 h -55 c -6.075,0 -11,-4.91167 -11,-10.97024 z"
     fill="#9dc3e6"
     fill-rule="evenodd"
     id="path45"
     style="stroke-width:0.998646" />
  <path
     d="m 95,91.25249 c 0,-5.78332 4.701,-10.4716 10.5,-10.4716 h 175 c 5.799,0 10.5,4.68828 10.5,10.4716 v 0 c 0,5.78331 -4.701,10.47159 -10.5,10.47159 h -175 c -5.799,0 -10.5,-4.68828 -10.5,-10.47159 z"
     fill="#9dc3e6"
     fill-rule="evenodd"
     id="path47"
     style="stroke-width:0.998646" />
  <path
     d="m 130,212.42379 c 0,-6.05857 4.925,-10.97024 11,-10.97024 h 74 c 6.075,0 11,4.91167 11,10.97024 v 0 c 0,6.05857 -4.925,10.97024 -11,10.97024 h -74 c -6.075,0 -11,-4.91167 -11,-10.97024 z"
     fill="#9dc3e6"
     fill-rule="evenodd"
     id="path49"
     style="stroke-width:0.998646" />
  <path
     d="m 522.01688,223.36232 h -48.59766 l 3.73828,-59.96826 h -21.9624 l -20.24902,59.96826 H 386.34842 L 467.8118,2e-5 h 62.14892 z m -42.67871,-90.96484 6.23046,-66.66601 -19.9375,66.66601 z"
     style="font-style:oblique;font-size:319px;font-family:Haettenschweiler, Haettenschweiler_MSFontService, sans-serif;fill:#3b3838"
     id="path15" />
  <path
     d="m 653.16824,122.58449 h -44.23632 l 8.87841,-44.39209 q 1.86914,-8.87842 -5.76318,-8.87842 -7.78809,0 -9.65723,8.87842 l -22.11816,110.74658 q -1.86914,9.18995 5.91894,9.18995 7.63233,0 9.50147,-9.18995 l 8.72266,-43.76904 h 44.23632 l -8.72265,44.08057 q -7.3208,36.604 -58.56641,36.604 -52.64746,0 -45.01514,-38.16162 L 557.99783,79.4385 q 7.63233,-38.16162 60.27979,-38.16162 51.2456,0 43.9248,36.604 z"
     style="font-style:oblique;font-size:319px;font-family:Haettenschweiler, Haettenschweiler_MSFontService, sans-serif;fill:#3b3838"
     id="path17" />
  <path
     d="m 766.71854,122.58449 h -44.23633 l 8.87842,-44.39209 q 1.86914,-8.87842 -5.76319,-8.87842 -7.78808,0 -9.65722,8.87842 l -22.11817,110.74658 q -1.86914,9.18995 5.91895,9.18995 7.63232,0 9.50146,-9.18995 l 8.72266,-43.76904 h 44.23633 l -8.72266,44.08057 q -7.3208,36.604 -58.56641,36.604 -52.64746,0 -45.01513,-38.16162 L 671.54813,79.4385 q 7.63232,-38.16162 60.27978,-38.16162 51.24561,0 43.92481,36.604 z"
     style="font-style:oblique;font-size:319px;font-family:Haettenschweiler, Haettenschweiler_MSFontService, sans-serif;fill:#3b3838"
     id="path19" />
  <path
     d="m 875.59598,146.72756 h -59.65674 l -8.41113,42.21142 q -1.86914,9.18995 5.91894,9.18995 7.63233,0 9.50147,-9.18995 l 7.3208,-36.44824 h 44.23633 l -7.32081,36.75977 q -7.3208,36.604 -59.50097,36.604 -51.71289,0 -44.08057,-38.16162 L 785.25418,79.4385 q 7.63233,-38.16162 59.34522,-38.16162 52.18017,0 44.85937,36.604 z m -38.78467,-27.10254 8.25537,-41.43262 q 1.86914,-8.87842 -5.76318,-8.87842 -7.78809,0 -9.65723,8.87842 l -8.25537,41.43262 z"
     style="font-style:oblique;font-size:319px;font-family:Haettenschweiler, Haettenschweiler_MSFontService, sans-serif;fill:#3b3838"
     id="path21" />
  <path
     d="m 996.6228,117.44436 h -44.3921 l 7.7881,-39.25196 q 1.7134,-8.25537 -5.9189,-8.25537 -7.6323,0 -9.19,7.94385 L 915.7825,223.36232 H 871.39041 L 907.52713,42.52297 h 44.39207 l -1.2461,6.07471 q 10.4361,-7.3208 28.9717,-7.3208 13.2398,0 21.3394,7.16503 8.0996,7.00928 5.7631,18.53565 z"
     style="font-style:oblique;font-size:319px;font-family:Haettenschweiler, Haettenschweiler_MSFontService, sans-serif;fill:#3b3838"
     id="path23" />
  <path
     d="m 1088.5222,223.36232 h -39.2519 l 1.4018,-7.00927 q -6.8535,9.50146 -30.3735,9.50146 -36.2925,0 -30.685,-28.34863 l 7.3208,-36.29248 q 2.3364,-12.14942 12.9282,-21.18359 10.7475,-9.03418 40.0307,-22.58545 16.9781,-7.78809 17.9126,-12.46094 l 5.2959,-26.79102 q 1.8692,-8.87842 -5.7631,-8.87842 -8.7227,0 -13.084,21.65088 -0.7788,3.89405 -1.8692,11.52637 -0.9345,7.63233 -1.7134,11.52637 h -42.8344 l 7.3208,-36.13672 q 7.3208,-36.604 60.2798,-36.604 49.5322,0 41.8999,38.16162 z m -37.6943,-33.80029 9.3457,-46.57275 q -16.0434,3.73828 -17.9126,13.70703 l -6.6977,32.86572 q -1.5577,8.25537 6.3862,8.25537 7.3208,0 8.8784,-8.25537 z"
     style="font-style:oblique;font-size:319px;font-family:Haettenschweiler, Haettenschweiler_MSFontService, sans-serif;fill:#3b3838"
     id="path25" />
</svg>
